<mxfile host="app.diagrams.net" agent="Mozilla/5.0 (Windows NT 10.0; Win64; x64) AppleWebKit/537.36 (KHTML, like Gecko) Chrome/131.0.0.0 Safari/537.36" version="25.0.1">
  <diagram name="Page-1" id="5ecmpIsDLvK0ItJB84XJ">
    <mxGraphModel dx="1674" dy="738" grid="1" gridSize="10" guides="1" tooltips="1" connect="1" arrows="1" fold="1" page="1" pageScale="1" pageWidth="850" pageHeight="1100" math="0" shadow="0">
      <root>
        <mxCell id="0" />
        <mxCell id="1" parent="0" />
        <mxCell id="r38bYJJTZHFNSflWYFGo-9" value="" style="verticalLabelPosition=bottom;verticalAlign=top;html=1;shape=mxgraph.basic.diag_snip_rect;dx=6;whiteSpace=wrap;" parent="1" vertex="1">
          <mxGeometry x="200" y="20" width="440" height="170" as="geometry" />
        </mxCell>
        <mxCell id="r38bYJJTZHFNSflWYFGo-11" value="" style="shape=ext;double=1;rounded=1;whiteSpace=wrap;html=1;" parent="1" vertex="1">
          <mxGeometry x="380" y="40" width="240" height="120" as="geometry" />
        </mxCell>
        <mxCell id="r38bYJJTZHFNSflWYFGo-12" value="JVM" style="text;html=1;align=center;verticalAlign=middle;whiteSpace=wrap;rounded=0;" parent="1" vertex="1">
          <mxGeometry x="395" y="50" width="60" height="30" as="geometry" />
        </mxCell>
        <mxCell id="r38bYJJTZHFNSflWYFGo-14" value="sdml" style="ellipse;whiteSpace=wrap;html=1;aspect=fixed;" parent="1" vertex="1">
          <mxGeometry x="560" y="90" width="50" height="50" as="geometry" />
        </mxCell>
        <mxCell id="r38bYJJTZHFNSflWYFGo-15" value="push&lt;br&gt;&lt;font style=&quot;font-size: 9px;&quot;&gt;gateway&lt;/font&gt;" style="ellipse;whiteSpace=wrap;html=1;aspect=fixed;" parent="1" vertex="1">
          <mxGeometry x="490" y="90" width="50" height="50" as="geometry" />
        </mxCell>
        <mxCell id="r38bYJJTZHFNSflWYFGo-16" value="node&lt;br&gt;&lt;font style=&quot;font-size: 9px;&quot;&gt;exporter&lt;/font&gt;" style="ellipse;whiteSpace=wrap;html=1;aspect=fixed;" parent="1" vertex="1">
          <mxGeometry x="220" y="90" width="50" height="50" as="geometry" />
        </mxCell>
        <mxCell id="r38bYJJTZHFNSflWYFGo-17" value="" style="shape=cylinder3;whiteSpace=wrap;html=1;boundedLbl=1;backgroundOutline=1;size=15;" parent="1" vertex="1">
          <mxGeometry x="70" y="240" width="120" height="130" as="geometry" />
        </mxCell>
        <mxCell id="r38bYJJTZHFNSflWYFGo-18" value="Prometheus" style="text;html=1;align=center;verticalAlign=middle;whiteSpace=wrap;rounded=0;" parent="1" vertex="1">
          <mxGeometry x="100" y="290" width="60" height="30" as="geometry" />
        </mxCell>
        <mxCell id="r38bYJJTZHFNSflWYFGo-19" value="" style="shape=document;whiteSpace=wrap;html=1;boundedLbl=1;" parent="1" vertex="1">
          <mxGeometry x="630" y="230" width="170" height="130" as="geometry" />
        </mxCell>
        <mxCell id="r38bYJJTZHFNSflWYFGo-20" value="Grafana" style="text;html=1;align=center;verticalAlign=middle;whiteSpace=wrap;rounded=0;" parent="1" vertex="1">
          <mxGeometry x="685" y="280" width="60" height="30" as="geometry" />
        </mxCell>
        <mxCell id="r38bYJJTZHFNSflWYFGo-21" value="" style="shape=callout;whiteSpace=wrap;html=1;perimeter=calloutPerimeter;" parent="1" vertex="1">
          <mxGeometry x="520" y="410" width="120" height="80" as="geometry" />
        </mxCell>
        <mxCell id="r38bYJJTZHFNSflWYFGo-22" value="Alerting" style="text;html=1;align=center;verticalAlign=middle;whiteSpace=wrap;rounded=0;" parent="1" vertex="1">
          <mxGeometry x="550" y="420" width="60" height="30" as="geometry" />
        </mxCell>
        <mxCell id="r38bYJJTZHFNSflWYFGo-27" value="" style="endArrow=classic;html=1;rounded=0;exitX=0;exitY=0.75;exitDx=0;exitDy=0;entryX=0.5;entryY=0;entryDx=0;entryDy=0;entryPerimeter=0;" parent="1" source="r38bYJJTZHFNSflWYFGo-19" target="r38bYJJTZHFNSflWYFGo-21" edge="1">
          <mxGeometry relative="1" as="geometry">
            <mxPoint x="370" y="390" as="sourcePoint" />
            <mxPoint x="470" y="390" as="targetPoint" />
          </mxGeometry>
        </mxCell>
        <mxCell id="r38bYJJTZHFNSflWYFGo-28" value="" style="shape=message;html=1;outlineConnect=0;" parent="r38bYJJTZHFNSflWYFGo-27" vertex="1">
          <mxGeometry width="20" height="14" relative="1" as="geometry">
            <mxPoint x="-10" y="-7" as="offset" />
          </mxGeometry>
        </mxCell>
        <mxCell id="r38bYJJTZHFNSflWYFGo-29" value="" style="endArrow=classic;html=1;rounded=0;entryX=1;entryY=0.5;entryDx=0;entryDy=0;entryPerimeter=0;exitX=0;exitY=0.5;exitDx=0;exitDy=0;" parent="1" source="r38bYJJTZHFNSflWYFGo-19" target="r38bYJJTZHFNSflWYFGo-17" edge="1">
          <mxGeometry relative="1" as="geometry">
            <mxPoint x="370" y="390" as="sourcePoint" />
            <mxPoint x="470" y="390" as="targetPoint" />
          </mxGeometry>
        </mxCell>
        <mxCell id="r38bYJJTZHFNSflWYFGo-30" value="Label" style="edgeLabel;resizable=0;html=1;;align=center;verticalAlign=middle;" parent="r38bYJJTZHFNSflWYFGo-29" connectable="0" vertex="1">
          <mxGeometry relative="1" as="geometry" />
        </mxCell>
        <mxCell id="r38bYJJTZHFNSflWYFGo-31" value="queries" style="edgeLabel;html=1;align=center;verticalAlign=middle;resizable=0;points=[];" parent="r38bYJJTZHFNSflWYFGo-29" vertex="1" connectable="0">
          <mxGeometry x="0.0135" y="-1" relative="1" as="geometry">
            <mxPoint as="offset" />
          </mxGeometry>
        </mxCell>
        <mxCell id="r38bYJJTZHFNSflWYFGo-35" value="" style="endArrow=classic;html=1;rounded=0;entryX=0;entryY=1;entryDx=0;entryDy=0;exitX=1;exitY=0;exitDx=0;exitDy=40;exitPerimeter=0;" parent="1" source="r38bYJJTZHFNSflWYFGo-17" target="r38bYJJTZHFNSflWYFGo-15" edge="1">
          <mxGeometry relative="1" as="geometry">
            <mxPoint x="370" y="390" as="sourcePoint" />
            <mxPoint x="470" y="390" as="targetPoint" />
          </mxGeometry>
        </mxCell>
        <mxCell id="r38bYJJTZHFNSflWYFGo-36" value="pulls" style="edgeLabel;resizable=0;html=1;;align=center;verticalAlign=middle;" parent="r38bYJJTZHFNSflWYFGo-35" connectable="0" vertex="1">
          <mxGeometry relative="1" as="geometry">
            <mxPoint x="-33" y="16" as="offset" />
          </mxGeometry>
        </mxCell>
        <mxCell id="r38bYJJTZHFNSflWYFGo-37" value="" style="endArrow=classic;html=1;rounded=0;entryX=0.5;entryY=1;entryDx=0;entryDy=0;exitX=0.5;exitY=0;exitDx=0;exitDy=0;exitPerimeter=0;" parent="1" source="r38bYJJTZHFNSflWYFGo-17" target="r38bYJJTZHFNSflWYFGo-16" edge="1">
          <mxGeometry relative="1" as="geometry">
            <mxPoint x="370" y="390" as="sourcePoint" />
            <mxPoint x="470" y="390" as="targetPoint" />
          </mxGeometry>
        </mxCell>
        <mxCell id="r38bYJJTZHFNSflWYFGo-38" value="pulls" style="edgeLabel;resizable=0;html=1;;align=center;verticalAlign=middle;" parent="r38bYJJTZHFNSflWYFGo-37" connectable="0" vertex="1">
          <mxGeometry relative="1" as="geometry">
            <mxPoint x="-9" y="10" as="offset" />
          </mxGeometry>
        </mxCell>
        <mxCell id="r38bYJJTZHFNSflWYFGo-39" value="" style="endArrow=none;dashed=1;html=1;rounded=0;entryX=0;entryY=0.5;entryDx=0;entryDy=0;exitX=1;exitY=0.5;exitDx=0;exitDy=0;" parent="1" source="r38bYJJTZHFNSflWYFGo-15" target="r38bYJJTZHFNSflWYFGo-14" edge="1">
          <mxGeometry width="50" height="50" relative="1" as="geometry">
            <mxPoint x="400" y="410" as="sourcePoint" />
            <mxPoint x="450" y="360" as="targetPoint" />
          </mxGeometry>
        </mxCell>
        <mxCell id="r38bYJJTZHFNSflWYFGo-40" value="GCP VM" style="text;html=1;align=center;verticalAlign=middle;whiteSpace=wrap;rounded=0;" parent="1" vertex="1">
          <mxGeometry x="220" y="30" width="60" height="30" as="geometry" />
        </mxCell>
        <mxCell id="r38bYJJTZHFNSflWYFGo-41" value="" style="endArrow=classic;html=1;rounded=0;exitX=0;exitY=0.25;exitDx=0;exitDy=0;entryX=1;entryY=0;entryDx=0;entryDy=40;entryPerimeter=0;" parent="1" source="r38bYJJTZHFNSflWYFGo-19" target="r38bYJJTZHFNSflWYFGo-17" edge="1">
          <mxGeometry relative="1" as="geometry">
            <mxPoint x="620" y="270" as="sourcePoint" />
            <mxPoint x="190" y="280" as="targetPoint" />
          </mxGeometry>
        </mxCell>
        <mxCell id="r38bYJJTZHFNSflWYFGo-42" value="Label" style="edgeLabel;resizable=0;html=1;;align=center;verticalAlign=middle;" parent="r38bYJJTZHFNSflWYFGo-41" connectable="0" vertex="1">
          <mxGeometry relative="1" as="geometry" />
        </mxCell>
        <mxCell id="r38bYJJTZHFNSflWYFGo-43" value="queries" style="edgeLabel;html=1;align=center;verticalAlign=middle;resizable=0;points=[];" parent="r38bYJJTZHFNSflWYFGo-41" vertex="1" connectable="0">
          <mxGeometry x="0.0135" y="-1" relative="1" as="geometry">
            <mxPoint as="offset" />
          </mxGeometry>
        </mxCell>
        <mxCell id="Klcav1Cg4_srU_6HK8oE-1" value="&lt;font style=&quot;font-size: 9px;&quot;&gt;postgres&lt;/font&gt;&lt;div&gt;&lt;font style=&quot;font-size: 9px;&quot;&gt;exporter&lt;/font&gt;&lt;/div&gt;" style="ellipse;whiteSpace=wrap;html=1;aspect=fixed;" vertex="1" parent="1">
          <mxGeometry x="300" y="65" width="50" height="50" as="geometry" />
        </mxCell>
        <mxCell id="Klcav1Cg4_srU_6HK8oE-2" value="jvm&lt;div&gt;&lt;font style=&quot;font-size: 9px;&quot;&gt;exporter&lt;/font&gt;&lt;/div&gt;" style="ellipse;whiteSpace=wrap;html=1;aspect=fixed;" vertex="1" parent="1">
          <mxGeometry x="390" y="80" width="50" height="50" as="geometry" />
        </mxCell>
        <mxCell id="Klcav1Cg4_srU_6HK8oE-3" value="" style="endArrow=classic;html=1;rounded=0;entryX=0;entryY=1;entryDx=0;entryDy=0;exitX=0.855;exitY=0;exitDx=0;exitDy=4.35;exitPerimeter=0;" edge="1" parent="1" source="r38bYJJTZHFNSflWYFGo-17" target="Klcav1Cg4_srU_6HK8oE-2">
          <mxGeometry relative="1" as="geometry">
            <mxPoint x="320" y="540" as="sourcePoint" />
            <mxPoint x="425.32233047033606" y="339.99766952966394" as="targetPoint" />
          </mxGeometry>
        </mxCell>
        <mxCell id="Klcav1Cg4_srU_6HK8oE-4" value="pulls" style="edgeLabel;resizable=0;html=1;;align=center;verticalAlign=middle;" connectable="0" vertex="1" parent="Klcav1Cg4_srU_6HK8oE-3">
          <mxGeometry relative="1" as="geometry">
            <mxPoint x="-65" y="37" as="offset" />
          </mxGeometry>
        </mxCell>
        <mxCell id="Klcav1Cg4_srU_6HK8oE-10" value="" style="endArrow=classic;html=1;rounded=0;entryX=0;entryY=1;entryDx=0;entryDy=0;exitX=0.855;exitY=0;exitDx=0;exitDy=4.35;exitPerimeter=0;" edge="1" parent="1" source="r38bYJJTZHFNSflWYFGo-17" target="Klcav1Cg4_srU_6HK8oE-1">
          <mxGeometry relative="1" as="geometry">
            <mxPoint x="370" y="390" as="sourcePoint" />
            <mxPoint x="470" y="390" as="targetPoint" />
          </mxGeometry>
        </mxCell>
        <mxCell id="Klcav1Cg4_srU_6HK8oE-11" value="pulls" style="edgeLabel;resizable=0;html=1;;align=center;verticalAlign=middle;" connectable="0" vertex="1" parent="Klcav1Cg4_srU_6HK8oE-10">
          <mxGeometry relative="1" as="geometry">
            <mxPoint x="30" y="-29" as="offset" />
          </mxGeometry>
        </mxCell>
        <mxCell id="Klcav1Cg4_srU_6HK8oE-13" value="cloudsql&lt;div&gt;proxyvm&lt;/div&gt;" style="ellipse;whiteSpace=wrap;html=1;aspect=fixed;" vertex="1" parent="1">
          <mxGeometry x="80" y="40" width="80" height="80" as="geometry" />
        </mxCell>
        <mxCell id="Klcav1Cg4_srU_6HK8oE-17" value="Postgres DB" style="shape=cylinder3;whiteSpace=wrap;html=1;boundedLbl=1;backgroundOutline=1;size=15;" vertex="1" parent="1">
          <mxGeometry x="260" y="360" width="110" height="115" as="geometry" />
        </mxCell>
        <mxCell id="Klcav1Cg4_srU_6HK8oE-18" value="" style="endArrow=classic;html=1;rounded=0;entryX=0;entryY=0.5;entryDx=0;entryDy=0;entryPerimeter=0;exitX=-0.037;exitY=0.4;exitDx=0;exitDy=0;exitPerimeter=0;" edge="1" parent="1" source="Klcav1Cg4_srU_6HK8oE-13" target="Klcav1Cg4_srU_6HK8oE-17">
          <mxGeometry width="50" height="50" relative="1" as="geometry">
            <mxPoint x="40" y="110" as="sourcePoint" />
            <mxPoint x="450" y="330" as="targetPoint" />
            <Array as="points">
              <mxPoint x="40" y="97" />
              <mxPoint x="40" y="418" />
            </Array>
          </mxGeometry>
        </mxCell>
        <mxCell id="Klcav1Cg4_srU_6HK8oE-19" value="" style="endArrow=classic;html=1;rounded=0;entryX=0.975;entryY=0.375;entryDx=0;entryDy=0;entryPerimeter=0;exitX=0;exitY=0;exitDx=0;exitDy=0;" edge="1" parent="1" source="Klcav1Cg4_srU_6HK8oE-1" target="Klcav1Cg4_srU_6HK8oE-13">
          <mxGeometry width="50" height="50" relative="1" as="geometry">
            <mxPoint x="400" y="380" as="sourcePoint" />
            <mxPoint x="450" y="330" as="targetPoint" />
          </mxGeometry>
        </mxCell>
        <mxCell id="Klcav1Cg4_srU_6HK8oE-20" value="" style="endArrow=classic;html=1;rounded=0;entryX=1;entryY=0;entryDx=0;entryDy=36.25;entryPerimeter=0;exitX=0.012;exitY=0.569;exitDx=0;exitDy=0;exitPerimeter=0;" edge="1" parent="1" source="r38bYJJTZHFNSflWYFGo-19" target="Klcav1Cg4_srU_6HK8oE-17">
          <mxGeometry relative="1" as="geometry">
            <mxPoint x="640" y="305" as="sourcePoint" />
            <mxPoint x="200" y="315" as="targetPoint" />
          </mxGeometry>
        </mxCell>
        <mxCell id="Klcav1Cg4_srU_6HK8oE-21" value="Label" style="edgeLabel;resizable=0;html=1;;align=center;verticalAlign=middle;" connectable="0" vertex="1" parent="Klcav1Cg4_srU_6HK8oE-20">
          <mxGeometry relative="1" as="geometry" />
        </mxCell>
        <mxCell id="Klcav1Cg4_srU_6HK8oE-22" value="queries" style="edgeLabel;html=1;align=center;verticalAlign=middle;resizable=0;points=[];" vertex="1" connectable="0" parent="Klcav1Cg4_srU_6HK8oE-20">
          <mxGeometry x="0.0135" y="-1" relative="1" as="geometry">
            <mxPoint as="offset" />
          </mxGeometry>
        </mxCell>
      </root>
    </mxGraphModel>
  </diagram>
</mxfile>
